<?xml version="1.0" encoding="UTF-8" standalone="no"?>
<!DOCTYPE svg PUBLIC "-//W3C//DTD SVG 1.1//EN" "http://www.w3.org/Graphics/SVG/1.1/DTD/svg11.dtd">
<svg width="100%" height="100%" viewBox="0 0 32 32" version="1.1" xmlns="http://www.w3.org/2000/svg" xmlns:xlink="http://www.w3.org/1999/xlink" xml:space="preserve" xmlns:serif="http://www.serif.com/" style="fill-rule:evenodd;clip-rule:evenodd;stroke-linejoin:round;stroke-miterlimit:2;">
    <circle cx="15.594" cy="15.594" r="15.594" style="fill:rgb(60,90,153);"/>
    <g transform="matrix(1,0,0,1,-22.464,-14.731)">
        <path d="M36.613,31.8L36.613,40.68C36.613,40.683 36.613,40.686 36.613,40.689C36.613,40.803 36.707,40.897 36.821,40.897C36.824,40.897 36.827,40.897 36.83,40.897L40.115,40.897C40.118,40.897 40.121,40.897 40.124,40.897C40.238,40.897 40.332,40.803 40.332,40.689C40.332,40.686 40.332,40.683 40.332,40.68L40.332,31.66L42.714,31.66C42.83,31.652 42.923,31.559 42.931,31.443L43.148,28.736C43.155,28.608 43.059,28.496 42.931,28.483L40.331,28.483L40.331,26.571C40.331,26.567 40.331,26.562 40.331,26.558C40.331,26.11 40.7,25.741 41.148,25.741C41.152,25.741 41.157,25.741 41.161,25.741L43,25.741C43.003,25.741 43.006,25.741 43.009,25.741C43.123,25.741 43.217,25.647 43.217,25.533C43.217,25.53 43.217,25.527 43.217,25.524L43.217,22.817C43.217,22.814 43.217,22.811 43.217,22.808C43.217,22.694 43.123,22.6 43.009,22.6C43.006,22.6 43.003,22.6 43,22.6L39.9,22.6C39.897,22.6 39.894,22.6 39.891,22.6C38.074,22.6 36.579,24.095 36.579,25.912C36.579,25.915 36.579,25.918 36.579,25.921L36.579,28.556L34.919,28.556C34.916,28.556 34.913,28.556 34.91,28.556C34.796,28.556 34.702,28.65 34.702,28.764C34.702,28.767 34.702,28.77 34.702,28.773L34.702,31.48C34.702,31.483 34.702,31.486 34.702,31.489C34.702,31.603 34.796,31.697 34.91,31.697C34.913,31.697 34.916,31.697 34.919,31.697L36.619,31.697L36.613,31.8Z" style="fill:white;"/>
    </g>
</svg>
