<?xml version="1.0" encoding="UTF-8" standalone="no"?>
<!DOCTYPE svg PUBLIC "-//W3C//DTD SVG 1.1//EN" "http://www.w3.org/Graphics/SVG/1.1/DTD/svg11.dtd">
<svg width="100%" height="100%" viewBox="0 0 32 32" version="1.1" xmlns="http://www.w3.org/2000/svg" xmlns:xlink="http://www.w3.org/1999/xlink" xml:space="preserve" xmlns:serif="http://www.serif.com/" style="fill-rule:evenodd;clip-rule:evenodd;stroke-linejoin:round;stroke-miterlimit:2;">
    <circle cx="15.594" cy="15.594" r="15.594" style="fill:url(#_Linear1);"/>
    <g transform="matrix(1,0,0,1,20.116,8.973)">
        <circle cx="1.194" cy="1.194" r="1.194" style="fill:white;"/>
    </g>
    <g transform="matrix(1,0,0,1,-20.046,-19.472)">
        <path d="M36,30C33.206,30.01 30.91,32.306 30.9,35.1C30.909,37.882 33.201,40.166 35.983,40.166C38.771,40.166 41.066,37.871 41.066,35.083C41.066,32.301 38.782,30.009 36,30ZM36,38.321C34.214,38.321 32.744,36.851 32.744,35.065C32.744,33.279 34.214,31.809 36,31.809C37.786,31.809 39.256,33.279 39.256,35.065C39.256,35.069 39.256,35.074 39.256,35.078C39.256,36.857 37.792,38.321 36.013,38.321C36.009,38.321 36.004,38.321 36,38.321Z" style="fill:white;fill-rule:nonzero;"/>
    </g>
    <g transform="matrix(1,0,0,1,-10.665,-10.218)">
        <path d="M30.636,36.123L22.387,36.123C18.997,36.112 16.211,33.326 16.2,29.936L16.2,21.687C16.2,21.686 16.2,21.685 16.2,21.684C16.2,18.292 18.992,15.5 22.384,15.5C22.385,15.5 22.386,15.5 22.387,15.5L30.636,15.5C30.637,15.5 30.638,15.5 30.639,15.5C34.031,15.5 36.823,18.292 36.823,21.684C36.823,21.685 36.823,21.686 36.823,21.687L36.823,29.936C36.823,29.952 36.823,29.969 36.823,29.985C36.823,33.352 34.052,36.123 30.685,36.123C30.669,36.123 30.652,36.123 30.636,36.123ZM22.387,17.454C20.047,17.458 18.122,19.383 18.118,21.723L18.118,29.972C18.122,32.312 20.047,34.237 22.387,34.241L30.636,34.241C32.976,34.237 34.901,32.312 34.905,29.972L34.905,21.687C34.901,19.347 32.976,17.422 30.636,17.418L22.387,17.418L22.387,17.454Z" style="fill:white;fill-rule:nonzero;"/>
    </g>
    <defs>
        <linearGradient id="_Linear1" x1="0" y1="0" x2="1" y2="0" gradientUnits="userSpaceOnUse" gradientTransform="matrix(33.6519,33.6519,-33.6519,33.6519,2.30791,2.68217)"><stop offset="0" style="stop-color:rgb(251,225,138);stop-opacity:1"/><stop offset="0" style="stop-color:rgb(251,225,138);stop-opacity:1"/><stop offset="0.21" style="stop-color:rgb(252,187,69);stop-opacity:1"/><stop offset="0.38" style="stop-color:rgb(247,82,116);stop-opacity:1"/><stop offset="0.52" style="stop-color:rgb(213,54,146);stop-opacity:1"/><stop offset="0.74" style="stop-color:rgb(143,57,206);stop-opacity:1"/><stop offset="1" style="stop-color:rgb(91,79,233);stop-opacity:1"/></linearGradient>
    </defs>
</svg>
