<?xml version="1.0" encoding="utf-8"?>
<!-- Generator: Adobe Illustrator 25.2.1, SVG Export Plug-In . SVG Version: 6.00 Build 0)  -->
<svg version="1.1" id="レイヤー_5" xmlns="http://www.w3.org/2000/svg" xmlns:xlink="http://www.w3.org/1999/xlink" x="0px"
	 y="0px" viewBox="0 0 170 50" style="enable-background:new 0 0 170 50;" xml:space="preserve">
<g>
	<path d="M113.2,4.3c0,0.2,0,0.4,0,0.7c-0.5,0.2-1.1,0.4-1.6,0.6c-0.1,0-0.2,0.2-0.3,0.2c-0.2,0.1-0.4,0.2-0.6,0.3
		c-0.4,0.2-0.8,0.5-1.1,0.7c-0.2,0.1-0.4,0.3-0.6,0.4c-0.3,0.2-0.6,0.4-1,0.5c-0.4,0.3-0.8,0.4-1.1,0.4c-0.6,0-1.4,0.5-1.6,1.1
		c-0.3,0.8-0.5,1.6-0.8,2.4c-0.3,0.9-0.7,1.8-1.5,2.3c0,0.1,0.1,0.1,0.1,0.2c0.2-0.1,0.4-0.1,0.6-0.2c0.6-0.4,1.2-0.9,1.8-1.2
		c0.9-0.5,1.9-0.8,2.9-1.2c0.2-0.1,0.3-0.1,0.5-0.2c0.7-0.3,1.2,0.1,1.2,0.8c-0.2,1.9-0.3,3.9-0.7,5.8c-0.3,1.3-0.8,2.7-1.4,4
		c-0.4,0.8-1,1.4-1.6,2.1c-0.2,0.3-0.6,0.5-0.8,0.8c-0.1,0.3,0,0.7,0,1c0,0,0.2,0.1,0.3,0c0.9-0.4,1.7-0.9,2.6-1.3
		c0.2-0.1,0.4-0.1,0.5-0.2c0.2-0.2,0.5-0.4,0.7-0.6c0.5-1.2,1-2.4,1.4-3.7c0.3-0.9,0.5-1.7,0.8-2.7c0.6-1.7,1.2-3.4,1.8-5.1
		c0.4-1.1,0.8-2.2,1.2-3.4c0.5-1.5,1-3.2,1.5-4.7c0.2-0.4,0.3-0.9,0.8-1.1c0.3-0.1,0.7,0,0.7,0.4c-0.1,0.7,0.4,0.9,0.8,1.3
		c2.6,2.3,5.1,4.7,7.7,7c1.3,1.2,2.7,2.6,3.9,3.9c1.3,1.3,2.6,2.8,3.8,4.2c0.4,0.4,0.4,0.8-0.1,1c-0.1,0.1-0.3,0.1-0.5,0
		c-0.9-0.3-1.4-1-1.7-1.8c-0.1-0.3-0.4-0.6-0.7-0.9c-0.9-1-1.8-1.9-2.9-3c-0.8-0.8-1.7-1.6-2.7-2.4c-1.3-1.2-2.7-2.4-3.9-3.7
		c-0.9-0.9-1.9-1.7-2.9-2.6c-0.3-0.2-0.6-0.4-0.9-0.7c-0.3-0.2-0.6-0.2-0.7,0.2c-0.3,0.8-0.6,1.6-0.9,2.4c-0.4,1-0.7,2.1-1,3.2
		c-0.3,1-0.7,2-1,3c-0.4,1-0.8,2-1.2,3.1c-0.4,1-0.8,2-1.2,3.1c-0.1,0.1-0.1,0.3-0.2,0.4c-0.1,0.2-0.2,0.4-0.3,0.6
		c-0.1,0.2-0.2,0.5-0.2,0.7c-0.2,0.5,0,0.6,0.5,0.6c0.1,0,0.3,0.1,0.5,0.1c-0.1,0.1-0.1,0.3-0.2,0.4c-0.5,0.4-1,0.7-1.4,1.1
		c-0.2,0.2-0.3,0.5-0.5,0.8c-0.2,0.4-0.3,0.7-0.5,1.1c0,0.1-0.1,0.1-0.1,0.2c-0.3,0.9-0.6,1.8-1,2.8c-0.3,0.7-0.5,1.5-0.9,2.2
		c-0.2,0.4-0.7,0.7-1.2,0.9c-0.3,0.2-0.4,0.4-0.4,0.7c0,0.3-0.1,0.6-0.4,0.6c-0.4,0-0.6-0.3-0.6-0.7c0.2-1.6,0.1-3.3-0.2-4.8
		c0-0.1,0-0.3-0.1-0.4c-0.1-0.4-0.3-0.5-0.6-0.2c-0.5,0.5-1.2,0.7-1.9,0.9c-0.3,0.1-0.6,0.4-0.9,0.5c-0.7,0.4-1.5,0.8-2.2,1.3
		c-0.6,0.4-1.2,0.7-1.8,1.1c-0.1,0.1-0.3,0.2-0.4,0.4c-0.3,0.4-0.7,0.9-1,1.3c-0.1,0.2-0.3,0.3-0.5,0.5c-0.7,0.5-1.4,1-2.1,1.4
		c-0.4,0.2-0.7,0.5-1.1,0.6c-0.2,0.1-0.5-0.1-0.7-0.1c0.1-0.2,0.1-0.4,0.2-0.5c0.8-0.8,1.5-1.6,2.4-2.3c1-0.8,2.1-1.5,3.3-2.2
		c1.5-0.9,3.1-1.8,4.6-2.8c0.3-0.2,0.7-0.3,1-0.5c0.2-0.1,0.4-0.2,0.7-0.4c-0.3-0.1-0.4-0.1-0.6-0.2c0.1-0.2,0.2-0.4,0.4-0.6
		c0.3-0.4,0.7-0.7,1-1c0.1-0.1,0.1-0.4,0.1-0.6c0-0.3,0-0.6,0-0.8c0-0.3-0.1-0.4-0.4-0.5c-0.8-0.3-1.7-0.5-2.4-1.1
		c-1.1-1-1.5-2.3-1.7-3.8c-0.1-0.7-0.1-1.4-0.1-2.1c0-0.2,0.2-0.5,0.4-0.7c0.1-0.1,0.4-0.1,0.5,0c0.1,0.1,0.3,0.3,0.3,0.5
		c0,1.3,0.1,2.7,0.6,4c0.2,0.4,0.4,0.9,0.7,1.3c0.2,0.3,0.5,0.4,0.8,0.6c0.1,0,0.2,0.1,0.2,0c0.3-0.4,0.7-0.8,0.8-1.2
		c0.2-0.5-0.3-0.7-0.7-0.8c-0.6-0.3-0.7-0.5-0.3-1c0.9-1.1,2.1-1.8,3.5-2.4c0.6-0.3,1.2-0.6,2-0.5c0.1,0,0.2-0.2,0.2-0.3
		c0.1-0.9,0.1-1.7,0.2-2.7c0-0.5-0.1-0.7-0.6-0.5c-1.4,0.6-3,1.2-4.3,2.1c-0.2,0.2-0.5,0.3-0.8,0.4c-0.1,0-0.2,0.1-0.2,0.2
		c-0.1,0.4-0.4,0.7-0.9,0.5c-0.1,0-0.2,0.1-0.2,0.1c-0.2,0.1-0.3,0.2-0.5,0.3c-0.1,0-0.1-0.1-0.2-0.1c0.2-0.4,0.5-0.8,0.7-1.2
		c0.4-0.7,0.8-1.3,1.1-2c0.4-1,0.7-2,1-3.1c0.1-0.2,0-0.4,0-0.6c-0.2,0-0.4,0-0.6,0.1c-0.7,0.3-1.4,0.8-2.1,1.1
		c-0.5,0.2-1.1,0.2-1.6,0.3c-0.1,0-0.3,0-0.3,0c-0.4,0.5-0.9,0.3-1.4,0.4c-0.2,0-0.4-0.2-0.6-0.3c0.1-0.1,0.2-0.4,0.3-0.4
		c1.2-0.4,2.3-0.9,3.6-1.3c0.7-0.3,1.3-0.6,2-0.9c0.3-0.1,0.7-0.3,1-0.5c0.2-0.1,0.4-0.4,0.4-0.7c0-1,0-2,0-3.1c0-0.8,0-0.9,0.5-1
		c0.3-0.1,0.6,0,0.6,0.4c0.1,0.7,0.1,1.4,0.1,2.1c0,0.3-0.1,0.6-0.1,0.9c0,0.4,0.1,0.6,0.5,0.4c0.5-0.2,0.9-0.5,1.3-0.7
		c1.3-0.6,2.7-1.1,4-1.6c0.5-0.2,0.9-0.3,1.4-0.5C112.9,4.3,113,4.3,113.2,4.3z M108.4,26.1c-0.4,0.1-0.8,0.1-0.9,0.2
		c-0.5,0.5-1.1,0.7-1.7,1.1c-0.1,0.1-0.2,0.3-0.2,0.4c0,1.2,0.1,2.6,0.2,3.8c0,0.2,0.1,0.3,0.2,0.5c0.1-0.1,0.3-0.2,0.4-0.4
		c0.4-0.9,0.8-1.7,1.2-2.7c0.3-0.6,0.5-1.2,0.7-1.8C108.3,26.8,108.3,26.5,108.4,26.1z M104.6,21.9L104.6,21.9
		c0.9-0.2,1.7-0.5,2.4-0.8c0.1,0,0.1-0.1,0.1-0.1c0.3-0.7,0.5-1.4,0.7-2.2c0.1-0.3-0.1-0.3-0.3-0.2c-0.1,0.1-0.3,0.2-0.4,0.3
		c-0.3,0.3-0.5,0.6-0.7,0.8c-0.4,0.4-0.8,0.6-1.2,1C105,21.1,104.8,21.5,104.6,21.9z M104.5,20.4c0.8-0.5,2.4-2.6,2.3-3.1
		c-0.3,0.2-0.5,0.4-0.7,0.5c-0.4,0.3-0.9,0.6-1.3,0.8c-0.4,0.2-0.7,0.5-0.6,0.9C104.2,20,104.3,20.2,104.5,20.4z M105.7,22.9
		c-0.8,0-1,0.2-0.9,0.8C105.4,23.6,105.6,23.4,105.7,22.9z"/>
	<path d="M164.5,31.8c-0.2,0.3-0.4,0.6-0.7,0.9c-0.1,0.1-0.2,0.2-0.3,0.3c-0.2,0.8-0.9,1.2-1.2,1.9c-0.2,0.3-0.2,0.8-0.4,1.1
		c-0.2,0.4-0.4,0.8-0.3,1.3c0.1,0.3-0.3,0.6-0.7,0.6c-1.2,0.1-2.4-0.2-3.7-0.5c-1.5-0.3-3-0.9-4.4-1.5c-0.9-0.4-1.8-1.1-2.8-1.6
		c-1.7-1.1-3-2.7-4.2-4.3c-1.4-1.8-2.6-3.9-3.7-5.9c-0.3-0.5-0.5-0.5-0.9-0.2c-0.4,0.3-0.9,0.6-1.3,0.9c-0.7,0.5-1.4,1-2.2,1.4
		c-0.7,0.3-1.4,0.6-2.1,0.8c-0.2,0.1-0.4-0.1-0.6-0.2c0-0.1,0-0.2,0-0.3c0.3-0.2,0.7-0.4,1-0.5c1.3-0.4,2.4-1.1,3.7-1.8
		c0.6-0.3,1.1-0.7,1.7-1.1c0.3-0.2,0.3-0.5,0.2-0.8c-0.3-0.6-0.5-1.1-0.7-1.7c-0.1-0.1-0.1-0.2-0.1-0.4c0-0.4,0-0.7,0.4-0.8
		c0.4-0.1,0.6,0.1,0.8,0.4c0.3,0.6,0.5,1.2,0.8,1.8c0.1,0.3,0.3,0.5,0.7,0.2c1-0.6,2-1.2,3.1-1.6c0.7-0.3,1.1-0.8,1.7-1.2
		c0.9-0.6,1.7-1.2,2.6-1.8c0.2-0.1,0.3-0.4,0.4-0.6c0.4-1.5,0.7-3.1,1.1-4.6c0.2-1,0.5-2,0.5-3.1c0-0.7,0.1-1.3,0.3-2
		c0.1-0.2,0.2-0.4,0.4-0.5s0.6-0.2,0.8-0.1s0.2,0.5,0.2,0.7c-0.2,1.4-0.5,2.9-0.7,4.3c-0.1,0.6-0.1,1.3-0.1,1.9
		c0,0.4,0.1,0.9,0.1,1.3s0.2,0.5,0.5,0.4s0.6-0.2,0.9-0.3c0.8-0.5,1.5-1,2.2-1.5c0.4-0.3,0.9-0.5,1.4-0.8c0.5-0.3,0.9-0.5,1.3-0.8
		c1.1-0.7,2.1-1.5,3.3-2.3c0.1-0.1,0.3-0.2,0.4-0.3c0.3,0.5,0.4,0.9,0.1,1.4c-0.3,0.4-0.5,1-0.7,1.5c-0.1,0.3-0.2,0.6-0.3,1
		c-0.7,1.6-1.3,3.4-2,5c-0.3,0.8-0.6,1.6-1,2.4c-0.4,0.8-0.8,1.5-1.2,2.2c-0.5,1-1,2-1.6,3.1c-0.5,0.7-0.9,1.5-1.8,1.8
		c-0.1-0.2-0.3-0.4-0.4-0.7c-0.2-0.9-0.3-1.9-0.4-2.9c-0.2-1.2-0.3-2.6-0.5-3.8c-0.1-0.9-0.3-1.8-0.5-2.7c0-0.1-0.1-0.3-0.1-0.4
		c-0.1-0.4-0.4-0.4-0.6-0.2c-0.3,0.2-0.5,0.5-0.6,0.9c-0.4,1.1-0.8,2.1-1.2,3.3c-0.2,0.5-0.3,1-0.5,1.5c-0.2,0.8-0.8,1.4-1.3,2.1
		c-0.1,0.1-0.1,0.1-0.2,0.1c0,0-0.1,0-0.2,0c0.6-2,1.2-4.1,1.8-6.1c-0.1,0-0.1-0.1-0.2-0.1c-0.5,0.3-1.1,0.6-1.6,0.9
		c-0.8,0.4-1.6,1-2.3,1.6c-0.5,0.4-1.2,0.6-1.7,1c-0.3,0.2-0.7,0.4-0.9,0.7c-0.1,0.1-0.1,0.5,0,0.7c0.5,1,0.9,1.9,1.5,2.9
		c1,1.6,2.1,3.3,3.3,4.7c1.8,2.2,4.2,3.8,6.9,4.9c1.5,0.6,3.1,0.9,4.6,1.2c0.4,0.1,0.7,0,0.8-0.4c0.4-1.4,1.4-2.6,2.3-3.7
		C163.9,32,163.9,32,164.5,31.8z M155.3,24.8C155.3,24.8,155.2,24.9,155.3,24.8c0,0.3,0,0.7,0.2,1c0.1,0.3,0.3,0.3,0.5,0
		c0.7-1.3,1.5-2.7,2.1-4.1c0.9-2.1,1.7-4.3,2.7-6.5c0.4-1.1,0.8-2.1,1.2-3.3c0.1-0.2-0.1-0.4-0.1-0.7c-0.3,0.1-0.6,0.1-0.8,0.2
		c-0.1,0-0.2,0.2-0.3,0.3c-0.8,0.5-1.6,1-2.4,1.5c-0.8,0.5-1.6,0.9-2.4,1.4c-0.4,0.2-0.8,0.5-1.3,0.8c-0.8,0.5-0.9,0.9-0.5,1.8
		c0.1,0.3,0.1,0.6,0.1,0.9c0,0.2,0,0.4,0,0.6c0.6,0.9,0.6,2,0.8,3.1C155.3,23,155.2,23.9,155.3,24.8z"/>
	<path d="M19.1,6.8c0.3-0.2,0.5-0.4,0.6-0.5c0.1-0.1,0.3-0.1,0.4-0.1c0.9,0.4,1.8,0.7,2.6,1.4c0.6,0.6,0.6,1.6,0.1,2.2
		c-0.3,0.4-0.5,0.8-0.7,1.2c-0.1,0.2-0.2,0.4-0.3,0.5c-0.4,0.5-0.8,1-1.1,1.5c0,0,0,0.1-0.1,0.2c0.3-0.1,0.5-0.2,0.8-0.3
		c1-0.5,2-1.1,3.2-1.6c0.1,0,0.2,0,0.3,0c0,0.1,0,0.3,0,0.3c-0.1,0.2-0.3,0.4-0.5,0.5c-0.8,0.6-1.7,1.1-2.7,1.7
		c-0.3,0.2-0.8,0.5-0.9,0.8c-0.2,0.4-0.1,0.9-0.1,1.3c0.2,0,0.3,0,0.5,0s0.5-0.1,0.7,0.1c0.5,0.3,0.9,0.7,1.3,1.1
		c0.1,0.2,0.2,0.6,0.1,0.8c-0.1,0.3-0.4,0.1-0.6,0c-0.6-0.3-1.1-0.6-1.8-1c0,0.2-0.1,0.3-0.1,0.4c0.1,1.1,0.2,2.1,0.3,3.3
		c0.2,2,0.3,4.2,0.4,6.2c0.1,0.8,0.1,1.6,0.1,2.4c0,0.7-0.2,1.5-0.1,2.2c0.1,0.6,0,1.2-0.2,1.7c-0.1,0.2-0.2,0.5-0.4,0.6
		c-0.2,0.1-0.5,0-0.7-0.2c-1-1.1-1.9-2.2-2-3.9c-0.1-1.1-0.2-2.1-0.2-3.3c0-0.5,0.1-1,0.1-1.5c0-0.2-0.1-0.3-0.2-0.5
		c-0.1,0.1-0.3,0.2-0.3,0.3c-0.4,0.6-0.7,1.1-1.1,1.7c-0.5,0.8-1,1.6-1.5,2.4c-0.2,0.3-0.5,0.6-0.7,0.9c-0.5,0.6-0.9,1.2-1.3,1.7
		c-0.1,0.2-0.3,0.4-0.4,0.6c0,0,0,0.1-0.1,0.1c-0.5,0.5-0.9,0.9-1.4,1.4c-0.3,0.3-0.5,0.7-0.8,1c-0.6,0.6-1.3,1.1-1.9,1.7
		c-0.1,0.1-0.2,0.1-0.3,0.2c-0.3,0.6-0.9,0.6-1.4,0.5v-0.1c1.5-0.5,2.4-1.7,3.5-2.9c0.5-0.5,0.9-0.9,1.3-1.5
		c0.6-0.8,1.2-1.6,1.8-2.6c0.4-0.6,0.8-1.1,1.1-1.7c0.6-0.9,1.1-1.8,1.6-2.9c0.4-0.8,0.7-1.6,1.1-2.4c0.9-2.1,1.7-4.4,1.8-6.7
		c0-0.2-0.1-0.4-0.2-0.7c-0.2,0.1-0.4,0.2-0.6,0.3c-0.5,0.3-0.9,0.6-1.4,1c-1,0.7-2,1.4-3.1,2.1c-0.9,0.7-1.8,1.5-3,2
		c-0.3,0.2-0.6,0.1-0.8-0.3c0.6,0,1.1-0.4,1.6-0.7c1.1-0.8,2.3-1.6,3.5-2.6c0.7-0.5,1.3-1.1,2-1.7c0.5-0.5,1.1-0.9,1.5-1.4
		c0.3-0.3,0.8-0.6,0.7-1.2c-0.1-0.5,0.4-0.6,0.8-0.7c0.1,0,0.3,0,0.4-0.1c1-0.8,1.5-1.9,1.9-3.2C22.2,9,22,8.6,21.4,8.3
		c-0.6-0.3-1.2-0.5-1.7-0.8C19.4,7.3,19.3,7.1,19.1,6.8z M20.1,32.2c0,0,0.1,0,0.1-0.1c0-0.3,0.1-0.5,0.1-0.8c0-1.1,0.1-2.2,0-3.4
		c-0.2-2.2-0.4-4.4-0.6-6.6c0-0.1-0.1-0.3-0.2-0.3c-0.1,0-0.2,0.1-0.3,0.2c-0.5,0.7-0.7,1.5-0.6,2.3c0,0.9,0.1,1.8,0.1,2.8
		c0,0.7,0,1.3,0.1,2c0.1,0.5,0.2,1.1,0.4,1.6c0.1,0.5,0.3,1.1,0.5,1.6C19.7,31.7,19.9,32,20.1,32.2z"/>
	<path d="M61.2,25.3c0.1-0.1,0.2-0.3,0.3-0.4c1-1.2,2.2-2.1,3.7-2.9c0.7-0.3,1.4-0.8,2.2-1.2c0.6-0.3,1.2-0.5,1.8-0.7
		c0.7-0.3,1.4-0.5,2.1-0.7c0.9-0.3,1.9-0.5,2.9-0.7c0.7-0.2,1.4-0.2,2.1-0.4c0.7-0.2,1.1,0.2,1,0.9c-0.1,1.3-0.2,2.7-0.4,4.1
		c-0.1,1.1-0.2,2.3-0.3,3.5c-0.1,1.4-0.2,2.8-0.4,4.2c-0.1,0.9-0.4,1.9-0.6,2.9c-0.1,0.3,0,0.5-0.1,0.8c-0.4,1.1-0.7,2.3-1.1,3.5
		c-0.3,0.8-1,1.2-1.8,1.1c-0.4-0.1-0.7-0.2-1-0.5c-0.4-0.4-0.8-0.9-1-1.4c-0.4-1.2-0.7-2.6-1-3.9c0-0.1-0.1-0.2,0-0.3
		c0.1-0.1,0.2-0.2,0.3-0.3c0.1,0.1,0.2,0.1,0.3,0.3c0.2,0.5,0.4,1,0.6,1.6c0.3,0.8,0.5,1.6,0.8,2.4c0.2,0.4,0.6,0.7,0.9,1
		c0.4,0.3,0.8,0.1,1-0.5c0.5-1.4,1.1-2.9,1.2-4.5c0-0.5,0.2-0.9,0.3-1.4c0.1-1,0.2-2,0.3-3.1c0.2-1.5,0.3-3.1,0.4-4.6
		c0.1-1.2,0.2-2.4,0.3-3.7c0.1-0.7-0.1-0.8-0.8-0.7c-0.6,0.1-1.2,0-1.8,0.2c-1.1,0.3-2.4,0.3-3.5,0.9c-0.6,0.4-1.4,0.5-2,0.8
		c-0.3,0.1-0.6,0.3-0.8,0.5c-0.5,0.2-0.9,0.5-1.4,0.7c-0.4,0.2-0.6,0.4-0.6,0.9c0.2,1,0.3,2.1,0.4,3.2c0,0.4,0.2,0.5,0.6,0.3
		c1.2-0.4,2.6-0.9,3.8-1.3c0.3-0.1,0.8,0,1.1,0.2c0.1,0,0.2,0.4,0.1,0.6c-0.2,0.5-0.5,0.9-0.7,1.3c-0.2,0.3-0.4,0.6-0.6,0.9
		c-0.4,0.4-0.8,0.7-1.2,1.1c-0.3,0.3-0.6,0.6-1,0.9c-0.1,0.1-0.3,0.3-0.5,0.4c-0.1,0.1-0.1,0.3-0.2,0.4c0.1,0,0.3,0.1,0.4,0.1
		c0.2,0,0.4-0.1,0.7-0.2c1.1-0.5,2.2-0.8,3.5-0.8c0.1,0,0.3,0,0.4,0c0.1,0.1,0.3,0.2,0.4,0.3c-0.1,0.1-0.2,0.3-0.4,0.3
		c-0.7,0.1-1.3,0.2-2,0.3c-0.3,0.1-0.5,0.3-0.8,0.4c-0.8,0.3-1.6,0.5-2.3,0.8c-0.5,0.2-1,0.3-1.5,0.3c-0.4,0-0.7-0.4-0.4-0.6
		c0.7-0.7,0.4-1.5,0.2-2.3c0-0.3-0.1-0.6-0.2-0.9c-0.1-0.4-0.3-0.4-0.6-0.2c-0.2,0.2-0.5,0.5-0.7,0.7c-0.1,0.1-0.2,0.3-0.2,0.4
		c0.1,0.3,0,0.5-0.2,0.6c-0.2,0.1-0.5,0.2-0.5,0.2c-0.2-0.2-0.4-0.5-0.3-0.7c0.1-0.4,0.4-0.8,0.7-1.1c0.4-0.4,0.9-0.7,1.2-1
		c0.2-0.2,0.3-0.5,0.3-0.8c-0.1-1-0.3-2-0.4-3.1c-0.1-0.4-0.2-0.5-0.6-0.3c-0.5,0.2-1,0.4-1.4,0.8c-0.2,0.2-0.4,0.3-0.6,0.4
		C61.3,25.4,61.2,25.3,61.2,25.3z M65.8,28.5c0.1,0.8,0.2,1.4,0.3,2c0,0.1,0.1,0.3,0.1,0.4c0.1,0,0.3-0.1,0.4-0.1
		c0.7-0.6,1.3-1.1,2-1.7c0.3-0.3,0.6-0.5,0.9-0.8c0.3-0.3,0.5-0.6,0.7-0.9c0.1-0.2,0-0.4,0-0.7c-0.2,0-0.5-0.1-0.7,0
		c-0.3,0.1-0.6,0.3-0.9,0.4c-0.6,0.2-1.2,0.5-1.8,0.7c-0.3,0.1-0.5,0.2-0.7,0.4C66,28.3,65.8,28.5,65.8,28.5z"/>
	<path d="M35.7,28.4c0.4,0.5,0.4,0.5,0.8,0.1c0.1-0.1,0.5,0,0.5,0.1c0.3,0.4,0.6,0.9,0.7,1.4c0.2,0.9,0.7,1.7,1.2,2.6
		c0.2,0.3,0.6,0.6,1,0.8c0.4,0.3,0.7,0.1,0.7-0.4c0-0.8,0.1-1.5,0.1-2.3c0-1.6,0-3.2-0.1-4.8c-0.1-2.2-0.4-4.6-0.6-6.8
		c-0.1-0.6-0.2-1.3-0.3-1.9c-0.1-0.5-0.2-0.5-0.6-0.3c-0.6,0.3-1.2,0.5-1.8,0.9c-0.7,0.5-1.3,1.1-2,1.7c-0.1,0.1-0.2,0.2-0.3,0.2
		c-0.2-0.1-0.4-0.3-0.6-0.5c0,0,0.1-0.3,0.1-0.4c1-0.7,2-1.3,3.1-2c0.8-0.5,1.6-1,2.4-1.4c0.3-0.2,0.7-0.3,1-0.3
		c0.2,0,0.5,0.1,0.3,0.4C40.7,16,41,16.7,41,17.6c0.2,1.8,0.3,3.7,0.5,5.6c0.1,1.9,0.3,3.9,0.4,5.8c0,0.6-0.1,1.1-0.1,1.7
		c-0.1,1-0.1,2-0.1,3.2c0,1-0.8,1.4-1.7,0.9c-1.7-0.8-2.7-2.3-3.1-4.1c-0.1-0.4-0.3-0.6-0.8-0.7c-0.5-0.1-0.9-0.3-1.3-0.5
		c-0.1,0-0.2-0.1-0.3,0c-0.6,0.3-1.1-0.1-1.4-0.5c-0.7-0.8-1-1.8-1.1-2.9c-0.2-2.1-0.3-4.3-0.4-6.3c0-0.4-0.1-0.9,0.4-1.1
		c0.2-0.1,0.4-0.2,0.5-0.1c0.2,0.1,0.3,0.3,0.3,0.5c0.1,1,0.1,2,0.1,3.1c0,1.1,0,2.3,0.1,3.5c0.1,0.8,0.5,1.6,0.7,2.6
		c0.1,0.4,0.4,0.4,0.8,0.2c0.8-0.4,1.2-1.2,1.6-2c0.3-0.6,0.1-1.1-0.5-1.2c-0.2,0-0.4,0-0.6,0.1c-0.5,0.3-1,0.3-1.6,0.1
		c-0.3-0.1-0.3-0.4-0.1-0.6c0.8-0.4,1.6-0.9,2.7-0.6c0.7,0.2,1.2,0.8,1.2,1.4c0,0.1,0,0.2,0,0.2c-0.4,0.4-0.3,1.1-0.6,1.6
		c-0.1,0.2-0.4,0.4-0.5,0.7C36,27.9,35.8,28.2,35.7,28.4z"/>
	<path d="M119.5,17.2c0.1,0.5,0.2,0.9,0.2,1.4c0.3,1.9,0.7,3.9,0.8,5.9c0.1,2.1,0.1,4.3,0,6.3c0,1.4-0.2,2.9-0.4,4.2
		c-0.1,1.1-0.3,2.2-0.5,3.4c-0.1,0.6-0.4,1.2-0.5,1.8c-0.2,1.2-0.3,2.3-0.7,3.5c-0.3,0.8-0.4,1.7-0.6,2.6c-0.1,0.5-0.2,1.1-0.5,1.5
		c-0.2,0.4-0.5,0.8-0.5,1.3c0,0.1-0.2,0.2-0.4,0.3c0.1-0.4,0.2-0.7,0.2-1.1c0.1-0.6,0.3-1.3,0.4-1.9c0.2-1,0.5-2,0.6-3.1
		c0.2-1,0.3-2.1,0.5-3.2c0.2-1.3,0.5-2.6,0.6-3.9c0.2-1.6,0.3-3.3,0.5-4.9c0.1-1,0.2-2,0.1-3.1c0-1.3-0.1-2.7-0.2-4
		c-0.2-1.8-0.5-3.7-0.8-5.5c-0.1-0.5-0.2-0.5-0.6-0.3c-0.3,0.2-0.6,0.4-0.9,0.6c-0.6,0.3-1.3,0.7-2,1c-0.3,0.1-0.6,0.3-0.9,0.3
		c-0.1,0-0.3-0.1-0.3-0.1c0-0.1,0-0.3,0.1-0.4c0.3-0.3,0.6-0.5,0.9-0.7c0.9-0.9,1.8-1.8,2.8-2.7c0.6-0.5,0.5-1.1,0.3-1.7
		c-0.1-0.3,0-0.6,0.1-0.8c0.3-0.6,0.8-0.6,1.1-0.1c0.1,0.1,0.2,0.3,0.3,0.4c0.2-0.2,0.4-0.3,0.6-0.4c0.1,0,0.1,0.1,0.2,0.1
		c-0.1,0.4-0.2,0.7-0.4,1.1c-0.2,0.4-0.3,0.7-0.1,1.1c0.1,0,0.1,0.1,0.2,0.1c0.4-0.6,0.8-1.1,1.2-1.7c0.3-0.5,0.6-1.1,0.4-1.7
		c-0.1-0.2-0.2-0.4-0.3-0.5c-0.9-0.8-1.9-1.2-3.2-1.1c-0.2,0-0.4-0.2-0.6-0.3c0.1-0.2,0.2-0.5,0.3-0.5c0.5-0.1,1.1-0.2,1.6-0.1
		c1,0.2,2,0.6,2.8,1.4c0.5,0.6,0.7,1.6,0.2,2.4c-0.1,0.2-0.2,0.5-0.3,0.7c-0.5,0.6-1,1.3-1.6,1.9C119.9,16.9,119.7,16.9,119.5,17.2z
		"/>
	<path d="M59.3,5.3c0.7-0.6,1.2-0.6,1.6,0.2C61.2,6,61.2,6.6,61,7.3c0,0.1-0.1,0.1-0.1,0.2c0,0.3,0,0.5,0,0.8
		c0.3-0.1,0.5-0.2,0.7-0.3c1.2-0.6,2.4-1.2,3.7-1.8c1.4-0.7,2.9-1.3,4.3-1.9c1-0.5,2.1-0.9,3.2-1.3c0.4-0.1,0.8-0.2,1.2-0.2
		c0.3,0,0.5,0.4,0.4,0.8c-0.5,1.1-1.1,2.3-1.7,3.5c-0.4,0.8-1.1,1.3-1.7,1.9c-0.1,0.1-0.3,0.2-0.4,0.3s-0.3,0.1-0.3,0.2
		c-0.1,0.6-0.6,0.8-1,1.1c-0.2,0.2-0.4,0.3-0.7,0.4c1.7-2.1,3.7-4.2,4.5-7c-0.8,0.2-1.3,0.5-2,0.6c-1.1,0.3-2,1.1-3.1,1.5
		c-0.1,0-0.1,0.1-0.2,0.1c-0.5,0.2-1,0.4-1.4,0.6c-1,0.5-2,1.1-3.1,1.6c-0.9,0.5-1.8,0.8-2.7,1.2c-0.3,0.1-0.5,0.5-0.7,0.7
		c-0.3,0.2-0.5,0.5-0.8,0.7c-0.1,0.1-0.2,0.3-0.3,0.5c-0.1,0.1-0.2,0.2-0.3,0.3c-0.1-0.1-0.2-0.3-0.2-0.4c0-0.2,0.1-0.5,0.3-0.7
		c0.6-0.8,0.9-1.8,1.3-2.8c0.4-0.9,0.5-1.8-0.3-2.6C59.4,5.4,59.4,5.3,59.3,5.3z"/>
	<path d="M62,20c0.4-0.3,0.9-0.5,1.3-0.7c0.4-0.2,0.7-0.4,1-0.7c0.1-0.1,0.2-0.2,0.3-0.3c0.2-0.2,0.3-0.5,0.5-0.7
		c0.3-0.5,0.7-0.9,1-1.4c0.1-0.2,0.1-0.6,0-0.6c-0.3-0.1-0.6-0.1-0.8,0c-0.5,0.2-1,0.4-1.4,0.6c-0.1,0-0.1,0.1-0.2,0.1
		c-0.3,0.4-0.6,0.7-1,1.1c-0.1,0.1-0.4,0.1-0.5,0c-0.1-0.1-0.2-0.4-0.1-0.5c0.4-0.5,0.8-1,1.3-1.4c0.4-0.4,1-0.6,1.4-0.8
		c0.6-0.4,1.3-0.2,1.9,0c0.3,0.1,0.5,0.7,0.3,1c-0.5,0.7-1,1.5-1.4,2.2c-0.1,0.1-0.1,0.4,0,0.5c0,0.2,0.3,0.4,0.2,0.5
		c-0.1,0.1-0.2,0.5-0.6,0.5c-0.5,0-1,0.3-1.4,0.7c-0.1,0.1-0.2,0.1-0.3,0.2c-0.3,0.3-0.7,0.5-0.5,1.1c0.1,0.4-0.1,0.6-0.5,0.5
		c-0.6-0.1-1-0.4-1.3-1.1c-0.7-1.3-1-2.8-1.1-4.3c0-0.4,0-0.8,0.4-1.1c0.1-0.1,0.3-0.2,0.4-0.2s0.3,0.2,0.3,0.3
		c0.1,0.6,0.2,1.2,0.2,1.9C61.4,18.4,61.6,19.2,62,20z"/>
	<path d="M28.7,31.4c0,0-0.1,0.2-0.1,0.3c0.1,0.6-0.3,0.9-0.8,0.6c-0.5-0.2-0.8-0.7-0.9-1.2c-0.1-0.9-0.2-1.7-0.3-2.7
		c-0.1-2.4-0.2-4.9-0.3-7.2c0-0.4,0-0.6,0.3-0.8c0.4-0.3,0.7-0.2,0.8,0.3c0.2,1.6,0.3,3.3,0.4,4.9c0.1,0.9,0,1.9,0,2.9
		c0,0.7,0,1.4,0.2,2.1C28.1,30.9,28.4,31.1,28.7,31.4z"/>
	<path d="M60.5,36.8c-0.5-0.3-1-0.5-1.4-0.9c-1.3-1.6-2.3-3.5-3-5.5c-0.3-1-0.6-2-0.9-3.1c-0.1-0.4-0.2-0.8,0.1-1.1
		c0.1-0.1,0.4-0.3,0.5-0.3c0.1,0,0.3,0.2,0.4,0.4c0.1,0.4,0.2,0.9,0.3,1.3c0.4,1.2,0.7,2.4,1.2,3.7c0.6,1.2,1.3,2.4,2,3.7
		c0.2,0.4,0.5,0.8,1.1,0.7c0.1,0,0.3,0.2,0.3,0.3c-0.1,0.2-0.2,0.4-0.4,0.5c-0.1,0.1-0.3,0-0.4,0.1C60.6,36.7,60.5,36.7,60.5,36.8z"
		/>
	<path d="M26.6,12.6c0.1-0.2,0.1-0.3,0.2-0.5c0.4-0.6,0.8-1.2,1.2-1.8c0.7-1,1.3-2.1,1.9-3.3c0.2-0.4,0.5-0.9,0.7-1.3
		c0.6-1.2,1.2-2.4,1.3-3.8c0-0.4,0.2-0.8,0.7-0.9C33,0.8,33.3,1,33.2,1.4c-0.2,0.9-0.4,1.8-0.7,2.8c-0.2,0.7-0.6,1.4-0.9,2.1
		c-0.2,0.4-0.6,0.8-0.9,1.2c-0.3,0.4-0.5,0.8-0.8,1.1c-0.2,0.3-0.5,0.5-0.7,0.7c-0.1,0.1-0.1,0.1-0.2,0.2c-0.2,0.6-0.6,1.1-1.1,1.5
		c-0.4,0.4-0.7,0.9-1.1,1.3C26.7,12.7,26.7,12.7,26.6,12.6z"/>
	<path d="M32,16.4c0.3-0.5,0.5-1,0.8-1.5c0.5-0.8,1-1.5,1.5-2.3c0.3-0.4,0.7-0.8,1-1.2c0.8-1.2,1.7-2.3,2.2-3.8
		c0.1-0.2,0.4-0.4,0.6-0.5c0.3-0.1,0.7,0.4,0.5,0.6c-0.3,0.3-0.2,0.8-0.3,1.1c-0.3,0.6-0.7,1.2-1.1,1.8c-0.3,0.5-0.7,0.9-1.1,1.3
		c-0.5,0.6-1,1.1-1.5,1.7c-0.3,0.4-0.5,0.8-0.8,1.1c-0.3,0.4-0.7,0.7-1.1,1.1c-0.2,0.2-0.3,0.5-0.5,0.7C32.1,16.5,32,16.4,32,16.4z"
		/>
	<path d="M64.1,11.8c-0.3,0.2-0.8,0.2-1.2,0.6c-0.5,0.5-1.3,0.8-1.9,1.1c-0.2,0.1-0.5-0.1-0.7-0.2c0.1-0.2,0.2-0.4,0.3-0.5
		c1.3-0.8,2.8-1.5,4.1-2.3c0.3-0.2,0.6-0.2,0.9-0.3c0.4-0.2,0.8,0,0.8,0.3s-0.1,0.6-0.5,0.7c-0.2,0.1-0.3,0.3-0.5,0.4
		c-0.1,0.1-0.1,0.3-0.2,0.4c-0.2,0.1-0.5,0.3-0.7,0.3C64.3,12.4,64.2,12.1,64.1,11.8z"/>
	<path d="M26.3,12.9c0.3,0.4,0,0.7-0.2,0.9c-0.3,0.3-0.3,0.5,0,0.8c0.6,0.5,1.3,1,2.2,1.2c0.1,0,0.2,0.3,0.3,0.4
		c-0.2,0.2-0.5,0.5-0.7,0.4c-0.9-0.1-1.7-0.4-2.6-1c-0.4-0.3-0.8-0.2-1.1,0.3c-0.2,0.2-0.4,0.4-0.5,0.6c0,0-0.1,0-0.1-0.1
		c0-0.2,0-0.4,0.1-0.5c0.3-0.5,0.6-0.9,0.9-1.3c0.4-0.4,0.8-0.8,1.2-1.3C25.9,13.2,26.1,13,26.3,12.9z"/>
	<path d="M30.3,13.5c-0.7-0.1-1.1-0.4-1.5-0.8c-0.1-0.2-0.1-0.5,0-0.7c0.2-0.3,0.5-0.5,0.8-0.2c0.4,0.3,0.7,0.7,1,1.1
		c0.1,0.1,0.1,0.3,0,0.4C30.6,13.4,30.4,13.4,30.3,13.5z"/>
</g>
</svg>
