<?xml version="1.0" encoding="UTF-8" standalone="no"?>
<!DOCTYPE svg PUBLIC "-//W3C//DTD SVG 1.1//EN" "http://www.w3.org/Graphics/SVG/1.1/DTD/svg11.dtd">
<svg width="100%" height="100%" viewBox="0 0 32 32" version="1.1" xmlns="http://www.w3.org/2000/svg" xmlns:xlink="http://www.w3.org/1999/xlink" xml:space="preserve" xmlns:serif="http://www.serif.com/" style="fill-rule:evenodd;clip-rule:evenodd;stroke-linejoin:round;stroke-miterlimit:2;">
    <g transform="matrix(1,0,0,1,-1168.82,-83.9998)">
        <g transform="matrix(1,0,0,1,1163.85,77.5)">
            <path d="M36.1,6.5L30,6.5C29.687,6.502 29.413,6.716 29.334,7.018L27.762,13.659L5.562,16.119C5.364,16.139 5.186,16.25 5.081,16.419C4.969,16.581 4.936,16.785 4.989,16.974L8,27.291C8.084,27.577 8.349,27.774 8.647,27.772L24.447,27.772L23.578,31.472L9.464,31.472C9.094,31.469 8.787,31.769 8.78,32.138C8.78,32.504 9.081,32.804 9.447,32.804C9.453,32.804 9.458,32.804 9.464,32.804L24.114,32.804C24.427,32.802 24.701,32.588 24.78,32.286L30.533,7.832L36.1,7.832C36.47,7.835 36.777,7.535 36.784,7.166C36.784,6.8 36.483,6.5 36.117,6.5C36.111,6.5 36.106,6.5 36.1,6.5ZM9.168,26.441L6.5,17.377L27.439,15.065L24.762,26.441L9.168,26.441Z" style="fill:white;fill-rule:nonzero;"/>
        </g>
        <g transform="matrix(1,0,0,1,1142.3,-42.96)">
            <path d="M33.342,154.3C32.293,154.31 31.436,155.175 31.436,156.224C31.436,157.279 32.305,158.148 33.36,158.148C34.415,158.148 35.284,157.279 35.284,156.224C35.283,155.168 34.414,154.3 33.358,154.3C33.353,154.3 33.347,154.3 33.342,154.3Z" style="fill:white;fill-rule:nonzero;"/>
        </g>
        <g transform="matrix(1,0,0,1,1099.6,-42.96)">
            <path d="M85.742,154.3C84.693,154.31 83.836,155.175 83.836,156.224C83.836,157.279 84.705,158.148 85.76,158.148C86.815,158.148 87.684,157.279 87.684,156.224C87.683,155.168 86.814,154.3 85.758,154.3C85.753,154.3 85.747,154.3 85.742,154.3Z" style="fill:white;fill-rule:nonzero;"/>
        </g>
    </g>
</svg>
