<svg height="174.933" viewBox="0 0 657 174.933" width="657" xmlns="http://www.w3.org/2000/svg"><text fill="#005656" font-family="UDReiminPr6N-Light, A-OTF UD Reimin Pr6N" font-size="18" font-weight="300" letter-spacing=".1em" transform="translate(85 172.933)"><tspan x="-58.5" y="0">守る力を高める</tspan></text><g fill="#1f3939" transform="matrix(1.5 0 0 1.5 -106 -123.679)"><path d="m176.854 97.935v19.024c-1.793-1.442-3.27-2.6-4.853-3.9-.6.668-1.125 1.3-1.653 1.9-17.933 19.446-39.418 33.054-65.264 39.278-4.888 1.2-10.057 1.407-15.085 2.039v-3.516c15.085-1.723 28.623-7.525 41.282-15.613a141.973 141.973 0 0 0 32.175-28.307c.457-.527.844-1.09 1.407-1.758-1.477-1.3-2.848-2.5-4.466-3.9 4.571-1.442 8.932-2.778 13.222-4.149.985-.316 1.934-.738 2.883-1.125a1.2 1.2 0 0 0 .352.027z"/><path d="m90 315c.774.035 1.512.105 2.286.105q41.3 0 82.635.035c.7 0 1.864-.492 1.829 1.16h-84.464c-.774 0-1.512.07-2.286.07z" transform="translate(0 -140.76)"/><path d="m308.222 164.4v47.787h-13.081c-.035-.563-.105-1.125-.105-1.688 0-10.479 0-20.993-.035-31.471a3.387 3.387 0 0 1 1.231-2.672c4.007-3.904 7.946-7.912 11.99-11.956z" transform="translate(-132.915 -43.116)"/><path d="m258.1 212.9v30.768h-12.976c-.035-.422-.141-.809-.141-1.2 0-6.681-.035-13.327.035-20.008a2.469 2.469 0 0 1 .774-1.723c3.9-2.637 7.912-5.2 11.85-7.806a1.586 1.586 0 0 1 .458-.031z" transform="translate(-100.48 -74.562)"/><path d="m207.894 243.8v19.9h-12.8a6.409 6.409 0 0 1 -.211-1.231c0-4.044-.035-8.052.035-12.1 0-.527.316-1.371.7-1.512 4.013-1.716 8.057-3.334 12.276-5.057z" transform="translate(-67.997 -94.596)"/><path d="m157.775 263.3v13.046h-12.975v-6.189c0-3.727 0-3.692 3.587-4.5 3.059-.739 6.083-1.548 9.388-2.357z" transform="translate(-35.53 -107.239)"/><path d="m107.57 283.513h-12.87v-8.053c4.36-.387 8.58-.774 12.87-1.16z" transform="translate(-3.047 -114.371)"/></g><text fill="#005656" font-family="UDReiminPr6N-Light, A-OTF UD Reimin Pr6N" font-size="18" font-weight="300" letter-spacing=".1em" transform="translate(330 171.933)"><tspan x="-88.2" y="0">美しく艶のある毛並み</tspan></text><g fill="#1f3939" transform="matrix(1.5 0 0 1.5 75.5 -183.5)"><path d="m205.052 137.5c.316 3.975 1.445 7.317 6.1 8.085-4.788.813-5.827 4.246-6.007 8.311-.542-3.794-1.31-7.408-6.143-8.311 4.786-.723 5.644-4.246 6.05-8.085z" transform="translate(-39.753 -7.128)"/><path d="m226.078 171.675a2.96 2.96 0 0 0 -2.078-2.71 2.877 2.877 0 0 0 2.078-2.665c.271 1.22.723 2.3 2.168 2.62-1.536.768-1.581.813-2.168 2.755z" transform="translate(-53.461 -22.92)"/><path d="m201.659 206.615a6.294 6.294 0 0 0 .678.858 3.7 3.7 0 0 1 1.4 3.207.853.853 0 0 1 -.9.9c-.858.045-1.716.181-2.575.271a6.269 6.269 0 0 1 -2.846-.542c-2.213-.858-2.529-2.71-2.8-4.7a2.935 2.935 0 0 0 -.994-1.671 3.8 3.8 0 0 1 -1.4-3.162 83.379 83.379 0 0 0 -1.671-16.08 15.324 15.324 0 0 0 -1.987-4.155 2.611 2.611 0 0 0 -2.71-1.445c-2.755-.09-5.51-.271-8.266-.5a13.39 13.39 0 0 1 -5.194-1.762c-1.4-.768-2.846-1.445-4.291-2.168a8.6 8.6 0 0 0 -5.33-.723c-.136 1.129-.949 1.626-1.942 1.987-1.942.768-2.891 2.484-3.839 4.155-.723 1.355-1.265 2.846-2.033 4.155s-1.807 2.484-2.71 3.749c-1.355 1.942-2.755 3.884-4.065 5.872a2.72 2.72 0 0 0 -.542 2.3 5.8 5.8 0 0 1 -.045 1.762c0 .949.045 1.942.09 2.891a1.613 1.613 0 0 0 1.129 1.536 4.265 4.265 0 0 1 3.207 4.065 7.628 7.628 0 0 1 -5.014.9 4.317 4.317 0 0 1 -3.794-4.517c-.045-2.123-.181-4.291-.316-6.414a14.166 14.166 0 0 0 -.542-2.755 3.479 3.479 0 0 1 1.31-3.794 9.775 9.775 0 0 0 2.529-5.1 5.3 5.3 0 0 0 .09-1.491c-1.4 1.536-2.8 3.071-4.155 4.607a4.417 4.417 0 0 0 -.632 1.4 27.609 27.609 0 0 1 -4.02 7.769 2.583 2.583 0 0 1 -.723.5c-.181-.316-.5-.632-.5-.949a8.519 8.519 0 0 1 1.084-3.884c.407-.723.768-1.491 1.174-2.258a.984.984 0 0 1 -.226-.181 5.975 5.975 0 0 0 -.994.813c-1.491 1.852-3.117 3.659-4.426 5.646a8.494 8.494 0 0 0 -1.039 3.388 13.333 13.333 0 0 0 .045 5.51 2.577 2.577 0 0 0 1.174 1.671c.858.452.813 1.355.994 2.168a18.669 18.669 0 0 1 -6.549-.406 1.157 1.157 0 0 1 -.994-1.265c.136-3.478.271-6.956.407-10.389a1.957 1.957 0 0 1 .045-.226c-.316-2.71.949-4.743 2.846-6.5a19.894 19.894 0 0 0 4.11-5.917 7.857 7.857 0 0 1 1.039-1.807 8.917 8.917 0 0 0 1.852-4.7c.5-3.3.994-6.594 1.762-9.847 1.445-6.188 5.556-10.027 11.382-12.15a34.169 34.169 0 0 1 9.034-1.581c3.659-.316 7.362-.406 11.066-.5 1.942-.045 3.839.226 5.781.09a18.783 18.783 0 0 0 8.677-2.246 14.745 14.745 0 0 0 5.781-6.64c1.536-3.252 3.162-6.5 4.743-9.711a11.111 11.111 0 0 1 3.026-4.155 2.2 2.2 0 0 0 .813-1.671c.135-.678.452-1.355.542-2.033.181-1.4.226-2.755.361-4.291a3.066 3.066 0 0 1 .723.407 8.367 8.367 0 0 1 2.529 5.059c.09.361-.045.9.587.9.587 0 .678-.5.678-.9a6.336 6.336 0 0 1 .994-3.071 13.047 13.047 0 0 0 .768-2.258c.361-.09.587.407.632.813.181.949.271 1.942.361 2.891.045.361-.045.723 0 1.039.181 1.4.5 1.716 1.9 1.987 1.129.226 2.213.542 3.3.858a.679.679 0 0 1 .452.406c.226.9.994 1.22 1.716 1.491 1.9.723 3.839 1.4 5.781 2.078a1.189 1.189 0 0 1 .858 1.762 21.292 21.292 0 0 1 -1.9 3.433 5.1 5.1 0 0 1 -3.93 1.987c-1.355.136-2.755.09-4.155.181a4.99 4.99 0 0 0 -3.613 1.852 1.072 1.072 0 0 0 -.361.9 21.261 21.261 0 0 1 -.226 6.1 42.519 42.519 0 0 0 .542 12.421 15.964 15.964 0 0 1 -1.445 10.208 35.027 35.027 0 0 0 -3.7 14.544 70.2 70.2 0 0 0 .135 8.717c.09 1.31.813 2.575 1.129 3.884a3.932 3.932 0 0 0 2.439 2.62 14.918 14.918 0 0 1 1.852 1.039 3.319 3.319 0 0 1 .949.994c.768 1.129.452 1.942-.813 2.394-1.987.678-3.659.135-5.194-1.716-.271-.316-.542-.678-.813-.994a.382.382 0 0 0 -.282.09z"/></g><text fill="#005656" font-family="UDReiminPr6N-Light, A-OTF UD Reimin Pr6N" font-size="18" font-weight="300" letter-spacing=".1em" transform="translate(580 171.933)"><tspan x="-68.4" y="0">毎日健やかに</tspan></text><path d="m83.088 29.834c-12.652.254-18.836 9.206-20.22 17.339-1.384-8.133-7.568-17.085-20.22-17.339-11.663-.226-21.293 8.754-21.293 25.106 0 21.011 23.778 30.725 40.016 46.427.565.537.424.537.424.537a1.3 1.3 0 0 0 1.045.508 1.383 1.383 0 0 0 1.045-.508s-.141 0 .424-.537c16.266-15.7 40.016-25.416 40.016-46.427.056-16.351-9.573-25.332-21.237-25.106z" fill="#1f3939" transform="matrix(1.5 0 0 1.5 477.9675 -30.816)"/><circle cx="621.936" cy="58.101" fill="#fff" r="20.926"/><g fill="none" stroke="#1f3939"><circle cx="621.936" cy="58.101" r="20.926" stroke-width="1.256"/><path d="m78.921 78.938 7.479 7.512 16.859-16.888" stroke-linecap="square" stroke-miterlimit="10" stroke-width="3.769" transform="translate(530.844 -19.905)"/></g></svg>